<?xml version="1.0" encoding="UTF-8"?><svg xmlns="http://www.w3.org/2000/svg" xmlns:xlink="http://www.w3.org/1999/xlink" viewBox="0 0 6000 2295.53"><defs><style>.d{font-family:Poppins-Bold, Poppins;font-size:893.22px;}.d,.e{fill:#163e68;}.f{fill:#16204a;}.g{fill:url(#c);}</style><linearGradient id="c" x1="1379.9" y1="320.29" x2="512.81" y2="1584.25" gradientTransform="matrix(1, 0, 0, 1, 0, 0)" gradientUnits="userSpaceOnUse"><stop offset="0" stop-color="#01b2b5"/><stop offset=".53" stop-color="#0698b6"/><stop offset=".85" stop-color="#098eb7"/></linearGradient></defs><g id="a"/><g id="b"><g><g><path class="e" d="M1038.6,1513.25c1.93-1.89,3.86-3.77,5.79-5.66,6.04-.73,13.48-.2,9.29-10.22,.68-1.04,1.63-1.71,2.87-1.96,1.6,.27,3.19,.5,4.77,.74-.28-1.58-.56-3.17-.84-4.75,.26-1.47,1.08-2.49,2.46-3.06,11.51,4,15.28,.27,11.26-11.25,.58-1.36,1.59-2.16,3.06-2.39,1.59,.29,3.16,.54,4.73,.8-.3-1.57-.6-3.14-.91-4.71,.26-1.4,1.02-2.42,2.31-3.04,9.94,4.37,9.42-2.93,10.02-8.97l-.55,.66c2.55-2.55,5.09-5.09,7.63-7.64,0,0-.77,.76-.76,.76,2.55-2.55,5.09-5.1,7.64-7.65,0,0-.76,.78-.76,.78,2.53-2.61,5.05-5.21,7.57-7.82l-.78,.62c11.36,.47,14.85-6.05,14.33-16.12,151.49-174.6,238.89-389.27,363.33-580.79,81.15-124.89,179.23-233.61,299.05-322.64,71.98-53.48,117.51-57.21,194.49-11.9,129.44,76.2,258.42,153.17,388.15,228.87,46.84,27.34,78.09,65.11,90.23,118.21-8.81,9.75-5.73,21.74-5.74,32.89-.14,255.64-.13,511.28,.02,766.92,0,11.17-2.96,23.15,5.74,32.92-14.07,49.08-41.32,86.49-86.43,113.62-216.48,130.21-432.1,261.83-647.61,393.63-58.16,35.57-113.86,36.33-173.11,1.16-233.84-138.8-468.51-276.19-702.87-414.12-3.91-2.3-7.89-4.52-11.66-7.06-47.04-31.64-49.99-65.94-6.12-101.31,39.94-32.21,82.24-61.48,123.19-92.46,18.18-13.76,35.58-28.55,53.33-42.88,4.83,3.05,5.13-.29,5.33-3.77,0,0-.72,1-.71,1,2.77-2.68,5.53-5.36,8.29-8.04,1.86-1.75,3.73-3.5,5.59-5.25,2.8-2.7,5.59-5.41,8.38-8.11Z"/><path class="e" d="M2463.01,1686.84c-8.69-9.78-5.73-21.76-5.74-32.92-.15-255.64-.16-511.28-.02-766.92,0-11.16-3.07-23.15,5.74-32.89,5.28,24.73,6.2,49.74,6.17,74.97-.23,225.29-.17,450.59-.12,675.89,0,27.46,.15,54.9-6.04,81.88Z"/><path class="e" d="M1127.74,1422.36c.52,10.08-2.97,16.6-14.33,16.12,4.78-5.37,9.55-10.75,14.33-16.12Z"/><path class="e" d="M1074.2,1477.08c4.02,11.52,.25,15.26-11.26,11.25,3.75-3.75,7.51-7.5,11.26-11.25Z"/><path class="e" d="M1053.69,1497.37c4.19,10.02-3.25,9.49-9.29,10.22,3.1-3.41,6.19-6.81,9.29-10.22Z"/><path class="e" d="M1093.43,1458.77c-.6,6.05-.08,13.34-10.02,8.97,3.34-2.99,6.68-5.98,10.02-8.97Z"/><path class="f" d="M1114.19,1437.86c-2.52,2.6-5.05,5.21-7.57,7.82,2.52-2.6,5.05-5.21,7.57-7.82Z"/><path class="f" d="M1107.38,1444.9c-2.55,2.55-5.09,5.1-7.64,7.65,2.55-2.55,5.09-5.1,7.64-7.65Z"/><path class="e" d="M1081.09,1470.78c.3,1.57,.6,3.14,.91,4.71-1.57-.26-3.14-.51-4.73-.8,.96-1.63,2.24-2.92,3.83-3.91Z"/><path class="e" d="M1060.48,1491.4c.28,1.58,.56,3.17,.84,4.75-1.58-.24-3.17-.47-4.77-.74,.95-1.71,2.27-3.04,3.93-4.02Z"/><path class="f" d="M1100.51,1451.79c-2.54,2.55-5.09,5.09-7.63,7.64,2.54-2.54,5.09-5.09,7.63-7.64Z"/><path class="f" d="M1038.6,1513.25c-2.79,2.7-5.59,5.4-8.38,8.11,2.79-2.7,5.59-5.4,8.38-8.11Z"/><path class="f" d="M1024.63,1526.61c-2.76,2.68-5.53,5.36-8.29,8.04,2.76-2.68,5.53-5.36,8.29-8.04Z"/><path class="e" d="M1017.05,1533.65c-.2,3.48-.49,6.82-5.33,3.77,1.05-2.28,2.82-3.54,5.33-3.77Z"/><path class="g" d="M1940.33,379.75c-14.88-42.17-45.2-110.09-107.33-172.61-116.25-116.97-261.53-132.18-319.57-138.25-226.32-23.68-396.84,92.48-446.01,128.72-133.87,93.13-236.67,181.4-308.52,247.98-157.84,146.29-236.77,219.44-280.07,334.79-30.34,80.83-39.41,162.89-56.63,318.64-12.62,114.13-9.88,162.04-41.55,241.91-17.3,43.62-48.46,119.56-125.63,183.97-25.61,21.38-88.22,68.14-180.28,86.46C44.69,1617.35,18.83,1618.84,0,1618.96c39.74,22.73,104.65,53.67,188.02,64.18,328.13,41.37,621.13-274.23,793.56-459.96,135.77-146.25,244.16-304,273.38-347.17,108.29-160.01,175.87-292.87,330.23-418.13,62.97-51.1,142.18-102.39,242.91-101.22,47.92,.56,86.91,12.82,112.24,23.08Z"/></g><text class="d" transform="translate(2637.29 1599.12)"><tspan x="0" y="0">NOBHO</tspan></text></g></g></svg>